<svg width="20" height="20" viewBox="0 0 20 20" fill="none" xmlns="http://www.w3.org/2000/svg">
<g opacity="0.2" clip-path="url(#clip0_1144_536)">
<g clip-path="url(#clip1_1144_536)">
<path fill-rule="evenodd" clip-rule="evenodd" d="M10.7276 2.27314L18.8052 9.39878C19.033 9.59973 19.0547 9.94729 18.8538 10.1751C18.7494 10.2934 18.5992 10.3612 18.4413 10.3612H15.4979V16.9C15.4979 17.5075 15.0054 18 14.3979 18H11.6489L11.6493 14.1931C11.6493 13.3301 10.9866 12.6219 10.1423 12.5498L9.99994 12.5437C9.08902 12.5437 8.35056 13.2822 8.35056 14.1931L8.34995 18H5.60202C4.9945 18 4.50202 17.5075 4.50202 16.9V10.3612H1.55854C1.25479 10.3612 1.00854 10.115 1.00854 9.81123C1.00854 9.65341 1.07634 9.50319 1.1947 9.39878L9.27225 2.27314C9.68805 1.90635 10.3118 1.90635 10.7276 2.27314Z" fill="black"/>
</g>
</g>
<defs>
<clipPath id="clip0_1144_536">
<rect width="20" height="20" fill="white"/>
</clipPath>
<clipPath id="clip1_1144_536">
<rect width="20" height="20" fill="white"/>
</clipPath>
</defs>
</svg>
