<svg width="24" height="25" viewBox="0 0 24 25" fill="none" xmlns="http://www.w3.org/2000/svg">
<g clip-path="url(#clip0_1144_627)">
<g clip-path="url(#clip1_1144_627)">
<path d="M21.3993 2.10366C21.318 2.03218 21.2107 1.99966 21.1022 2.01252L9.43165 3.52942C9.24416 3.55401 9.10374 3.71398 9.10374 3.90421V6.17976V7.77268V17.3726C8.41631 16.5425 7.32416 16.0024 6.09198 16.0024C4.01612 16.0024 2.32727 17.5291 2.32727 19.4061C2.32727 21.283 4.01612 22.8098 6.09198 22.8098C8.16784 22.8098 9.85668 21.283 9.85668 19.4061C9.85668 19.3183 9.84953 19.2321 9.842 19.1463C9.84689 19.1217 9.85668 19.0994 9.85668 19.0737V8.10511L20.7743 6.68577V13.5903C20.0869 12.7606 18.9948 12.2205 17.7626 12.2205C15.6867 12.2205 13.9979 13.7473 13.9979 15.6242C13.9979 17.5012 15.6867 19.0279 17.7626 19.0279C19.8196 19.0279 21.4945 17.528 21.5246 15.6745C21.5246 15.6696 21.5273 15.6654 21.5273 15.6605V6.25539V4.66285V2.38768C21.5273 2.27876 21.4806 2.17514 21.3993 2.10366Z" fill="white"/>
</g>
</g>
<defs>
<clipPath id="clip0_1144_627">
<rect width="24" height="24" fill="white" transform="translate(0 0.410156)"/>
</clipPath>
<clipPath id="clip1_1144_627">
<rect width="24" height="24" fill="white" transform="translate(0 0.410156)"/>
</clipPath>
</defs>
</svg>
