<svg width="24" height="25" viewBox="0 0 24 25" fill="none" xmlns="http://www.w3.org/2000/svg">
<g clip-path="url(#clip0_1144_649)">
<g clip-path="url(#clip1_1144_649)">
<path d="M22.379 13.3057C22.379 10.4455 20.0089 8.08429 17.0848 8.01722C17.1193 7.77273 17.1377 7.52428 17.1377 7.27794C17.1377 4.36074 14.7061 1.98828 11.7165 1.98828C8.72766 1.98828 6.29661 4.36074 6.29661 7.27794C6.29661 7.62506 6.33164 7.97189 6.40013 8.31135C3.6927 8.60219 1.57898 10.9009 1.57898 13.5675C1.57898 16.484 4.01111 18.8571 7.00062 18.8571C8.62683 18.8571 10.1838 18.1316 11.2061 16.9083C10.7779 18.8331 9.50191 21.231 5.91718 22.177L5.76797 22.2169L5.84383 22.7883H18.2062L18.2731 22.2119L18.1228 22.177C17.9607 22.1371 14.188 21.1641 12.9728 16.8925C13.9867 17.9625 15.4604 18.5946 16.9585 18.5946C19.9471 18.5946 22.379 16.2226 22.379 13.3057Z" fill="white"/>
</g>
</g>
<defs>
<clipPath id="clip0_1144_649">
<rect width="24" height="24" fill="white" transform="translate(0 0.410156)"/>
</clipPath>
<clipPath id="clip1_1144_649">
<rect width="24" height="24" fill="white" transform="translate(0 0.410156)"/>
</clipPath>
</defs>
</svg>
