<svg width="20" height="20" viewBox="0 0 20 20" fill="none" xmlns="http://www.w3.org/2000/svg">
<g clip-path="url(#clip0_1144_525)">
<g clip-path="url(#clip1_1144_525)">
<g clip-path="url(#clip2_1144_525)">
<path d="M11.7678 11.768C13.9157 9.62011 13.9157 6.1377 11.7678 3.98982C9.61996 1.84194 6.13756 1.84194 3.98967 3.98982C1.84179 6.1377 1.84179 9.62011 3.98967 11.768C6.13756 13.9159 9.61996 13.9159 11.7678 11.768Z" stroke="#333333" stroke-width="3"/>
<path d="M13.5355 11.4149C12.9497 10.8291 12 10.8291 11.4142 11.4149C10.8284 12.0007 10.8284 12.9505 11.4142 13.5362L14.9497 17.0718C15.5355 17.6576 16.4852 17.6576 17.071 17.0718C17.6568 16.486 17.6568 15.5362 17.071 14.9505L13.5355 11.4149Z" fill="#333333"/>
</g>
</g>
</g>
<defs>
<clipPath id="clip0_1144_525">
<rect width="20" height="20" fill="white"/>
</clipPath>
<clipPath id="clip1_1144_525">
<rect width="20" height="20" fill="white"/>
</clipPath>
<clipPath id="clip2_1144_525">
<rect width="20" height="20" fill="white"/>
</clipPath>
</defs>
</svg>
