<svg width="20" height="20" viewBox="0 0 20 20" fill="none" xmlns="http://www.w3.org/2000/svg">
<g clip-path="url(#clip0_1144_670)">
<g clip-path="url(#clip1_1144_670)">
<g opacity="0.4">
<path d="M17.573 7.00795C17.7415 10.3015 16.8191 12.9304 14.8089 14.7407C12.4953 16.8244 8.85929 17.6213 4.83743 16.9904C4.14389 16.8817 3.40785 16.6547 2.65316 16.3453L0.196533 15.3383L2.70712 14.4745C3.55349 14.1833 4.23288 13.9225 5.02319 13.5754C4.19149 13.2653 3.4873 12.7069 2.99316 11.9473L2.05405 10.5035L2.97657 10.45C2.52372 10.1361 2.15335 9.74428 1.8612 9.30053C1.60525 8.91147 1.41927 8.49314 1.30345 8.06881L0.844759 6.38837L1.99658 6.6973C1.25526 5.65705 1.00068 4.37246 1.32875 3.1145L1.77871 1.38915L3.01628 2.67278C3.46573 3.13895 3.93837 3.54986 4.43201 3.90923C5.58126 4.74587 6.8055 5.28069 8.07447 5.58269C8.50461 5.68506 8.92193 5.75636 9.33757 5.80451C8.9594 3.96215 9.76792 2.62495 11.0509 1.83633C12.6682 0.842395 14.902 0.93247 16.3808 2.29441C16.4026 2.31448 16.4185 2.31872 16.4247 2.31717C16.6666 2.25708 16.8774 2.19214 17.123 2.1046L19.0941 1.40215L18.3627 3.49075L19.5907 3.49162L18.4001 5.08805C18.2602 5.27569 18.1153 5.46951 17.9554 5.68288C17.6862 6.04232 17.5478 6.51337 17.573 7.00795ZM17.1551 5.08331C17.3307 4.84894 17.4767 4.65347 17.5985 4.49021L16.9534 4.48975L17.4587 3.04657C17.216 3.13309 16.968 3.21259 16.6659 3.28766C16.3293 3.37128 15.9696 3.275 15.7037 3.03024C14.4723 1.89621 12.6945 1.99997 11.5745 2.68829C11.0383 3.01788 9.84948 3.99155 10.3919 5.90912C10.4163 5.99533 10.4188 5.99747 10.512 6.90308C10.0884 6.80481 5.88037 7.0842 2.29638 3.36685C1.95901 4.66049 2.41921 6.00617 3.56759 6.90186L5.16137 8.14514L3.14981 7.94617C2.74011 7.90558 2.48605 7.86392 2.26815 7.80548C2.35025 8.10623 2.48712 8.43247 2.69662 8.75092C3.01568 9.23554 3.61764 9.8674 4.6737 10.126L6.84701 10.6583L4.69171 11.2585C4.40927 11.3373 4.12561 11.3849 3.83142 11.402C4.38546 12.2537 5.2868 12.7783 6.36926 12.8476L8.62908 12.9922L6.58227 13.961C5.11605 14.655 4.20816 15.0156 3.03247 15.4201C3.61276 15.658 4.3139 15.8961 4.9923 16.0025C8.73834 16.5901 12.0725 15.8594 14.1396 13.9977C15.9092 12.404 16.7283 10.0694 16.5743 7.05902C16.5374 6.33454 16.7436 5.63278 17.1551 5.08331Z" fill="#1EA1F1"/>
</g>
</g>
</g>
<defs>
<clipPath id="clip0_1144_670">
<rect width="20" height="20" fill="white"/>
</clipPath>
<clipPath id="clip1_1144_670">
<rect width="20" height="20" fill="white"/>
</clipPath>
</defs>
</svg>
