<svg width="20" height="20" viewBox="0 0 20 20" fill="none" xmlns="http://www.w3.org/2000/svg">
<g clip-path="url(#clip0_1144_679)">
<g clip-path="url(#clip1_1144_679)">
<g opacity="0.4">
<path d="M10.1229 2.5C10.1756 2.50021 10.2399 2.50055 10.3148 2.50105C10.564 2.50272 10.8415 2.50574 11.1403 2.51042C11.9945 2.52382 12.8489 2.54794 13.6475 2.58551C15.1802 2.65763 16.3178 2.76906 16.9451 2.93777C17.9815 3.22029 18.7891 4.03306 19.065 5.07117C19.2051 5.59723 19.307 6.31 19.3793 7.17007C19.4322 7.80018 19.4661 8.47313 19.4849 9.14578C19.4962 9.54924 19.5 9.86369 19.5 10.0452C19.5 10.2266 19.4962 10.5411 19.4849 10.9445C19.4661 11.6172 19.4322 12.2901 19.3793 12.9202C19.307 13.7804 19.2051 14.4932 19.065 15.019C18.7892 16.0572 17.9815 16.87 16.9435 17.153C16.3178 17.3213 15.1802 17.4327 13.6475 17.5048C12.8489 17.5424 11.9945 17.5665 11.1403 17.5799C10.8415 17.5846 10.564 17.5876 10.3148 17.5893C10.2399 17.5898 10.1756 17.5901 10.1229 17.5903H9.87714C9.82437 17.5901 9.7601 17.5898 9.6852 17.5893C9.43603 17.5876 9.1585 17.5846 8.85966 17.5799C8.00546 17.5665 7.15109 17.5424 6.35252 17.5048C4.81976 17.4327 3.68225 17.3213 3.05485 17.1526C2.01848 16.87 1.21084 16.0572 0.935018 15.0193C0.794934 14.4932 0.692956 13.7804 0.620722 12.9202C0.567805 12.2901 0.533896 11.6172 0.515067 10.9445C0.503773 10.5411 0.5 10.2266 0.5 10.0452L0.500242 9.95938C0.501231 9.77204 0.505386 9.4916 0.515067 9.14578C0.533896 8.47313 0.567805 7.80018 0.620722 7.17007C0.692956 6.30993 0.794934 5.59712 0.934954 5.07129C1.21084 4.03313 2.01848 3.2203 3.05653 2.93731C3.68225 2.76906 4.81976 2.65763 6.35252 2.58551C7.15109 2.54794 8.00546 2.52382 8.85966 2.51042C9.1585 2.50574 9.43603 2.50272 9.6852 2.50105C9.7601 2.50055 9.82437 2.50021 9.87714 2.5H10.1229ZM10.1196 3.49999H9.88044C9.8288 3.5002 9.76566 3.50053 9.69192 3.50103C9.44563 3.50268 9.17107 3.50566 8.87535 3.5103C8.03081 3.52355 7.18644 3.54738 6.39952 3.58441C4.94096 3.65303 3.84748 3.76015 3.31787 3.90256C2.62539 4.09134 2.08575 4.63445 1.90135 5.32836C1.77963 5.78544 1.68493 6.44739 1.61721 7.25376C1.56603 7.86319 1.53302 8.51832 1.51468 9.17376C1.50681 9.45475 1.50269 9.69081 1.50098 9.8657V10.2246C1.50269 10.3995 1.50681 10.6356 1.51468 10.9166C1.53302 11.572 1.56603 12.2271 1.61721 12.8366C1.68493 13.6429 1.77963 14.3049 1.90141 14.7622C2.08575 15.4559 2.62539 15.999 3.3162 16.1873C3.84748 16.3302 4.94096 16.4373 6.39952 16.5059C7.18644 16.5429 8.03081 16.5668 8.87535 16.58C9.17107 16.5847 9.44563 16.5876 9.69192 16.5893C9.76566 16.5898 9.8288 16.5901 9.88044 16.5903H10.1196C10.1712 16.5901 10.2343 16.5898 10.3081 16.5893C10.5544 16.5876 10.8289 16.5847 11.1247 16.58C11.9692 16.5668 12.8136 16.5429 13.6005 16.5059C15.059 16.4373 16.1525 16.3302 16.6821 16.1878C17.3746 15.999 17.9142 15.4559 18.0987 14.762C18.2204 14.3049 18.3151 13.6429 18.3828 12.8366C18.434 12.2271 18.467 11.572 18.4853 10.9166C18.4963 10.5232 18.5 10.2179 18.5 10.0452C18.5 9.87247 18.4963 9.56715 18.4853 9.17376C18.467 8.51832 18.434 7.86319 18.3828 7.25376C18.3151 6.44739 18.2204 5.78544 18.0986 5.32812C17.9142 4.63445 17.3746 4.09134 16.6838 3.90301C16.1525 3.76015 15.059 3.65303 13.6005 3.58441C12.8136 3.54738 11.9692 3.52355 11.1247 3.5103C10.8289 3.50566 10.5544 3.50268 10.3081 3.50103C10.2343 3.50053 10.1712 3.5002 10.1196 3.49999ZM7.45455 6.21159L14.193 10.0452L7.45455 13.8787V6.21159ZM8.45455 7.93101V12.1593L12.1707 10.0452L8.45455 7.93101Z" fill="#FF2500"/>
</g>
</g>
</g>
<defs>
<clipPath id="clip0_1144_679">
<rect width="20" height="20" fill="white"/>
</clipPath>
<clipPath id="clip1_1144_679">
<rect width="20" height="20" fill="white"/>
</clipPath>
</defs>
</svg>
